<svg xmlns="http://www.w3.org/2000/svg" viewBox="0 0 24 24"><path d="M19.14 12.94c.04-.31.06-.63.06-.94s-.02-.63-.06-.94l2.03-1.58a.49.49 0 00.12-.61l-1.92-3.32a.488.488 0 00-.59-.22l-2.39.96a7.02 7.02 0 00-1.62-.94l-.36-2.54A.484.484 0 0014 2h-4a.49.49 0 00-.49.42l-.36 2.54c-.59.22-1.14.53-1.62.94l-2.39-.96a.488.488 0 00-.59.22L2.74 8.87c-.12.21-.08.47.12.61l2.03 1.58c-.04.31-.06.63-.06.94s.02.63.06.94l-2.03 1.58a.49.49 0 00-.12.61l1.92 3.32c.12.22.37.29.59.22l2.39-.96c.48.41 1.03.72 1.62.94l.36 2.54c.05.24.24.41.49.41h4c.25 0 .44-.17.49-.42l.36-2.54c.59-.22 1.14-.53 1.62-.94l2.39.96c.22.08.47 0 .59-.22l1.92-3.32c.12-.22.07-.47-.12-.61l-2.01-1.58zM12 15.6A3.6 3.6 0 1112 8.4a3.6 3.6 0 010 7.2z"/></svg>
